Coordinates
version=1
nRows=16
nColumns=40
inDegrees=yes

Units are S.I. units (second, meters, Newtons, ...)
Angles are in degrees.

endheader
time	pelvis_tilt	pelvis_list	pelvis_rotation	pelvis_tx	pelvis_ty	pelvis_tz	hip_flexion_r	hip_adduction_r	hip_rotation_r	knee_angle_r	knee_angle_r_beta	ankle_angle_r	subtalar_angle_r	mtp_angle_r	hip_flexion_l	hip_adduction_l	hip_rotation_l	knee_angle_l	knee_angle_l_beta	ankle_angle_l	subtalar_angle_l	mtp_angle_l	lumbar_extension	lumbar_bending	lumbar_rotation	arm_flex_r	arm_add_r	arm_rot_r	elbow_flex_r	pro_sup_r	wrist_flex_r	wrist_dev_r	arm_flex_l	arm_add_l	arm_rot_l	elbow_flex_l	pro_sup_l	wrist_flex_l	wrist_dev_l
     11.12000000	     -4.08271082	     -3.73878230	    -10.02842696	      0.92307628	      0.92535817	      0.51201652	     19.56341316	      3.43646006	     -5.41665237	     22.04398760	     22.04398760	      8.57416848	     -1.42796150	     -3.69111293	     -1.15621369	     -5.90759287	    -13.83906137	     22.52698942	     22.52698942	     19.32207919	     -9.66170553	     -0.59925842	     -9.01180318	      8.83805119	     -0.07637017	    -10.49257633	    -14.69030418	    -18.34727441	     37.39527152	     42.12702886	      0.00000000	      0.00000000	     30.83465435	    -21.54594370	    -11.05882241	     69.85204157	     43.95872579	      0.00000000	      0.00000000
     11.14085714	     -4.06937322	     -3.77112311	     -9.29268435	      0.92374516	      0.92615871	      0.51664459	     18.78033987	      3.59217875	     -6.00785791	     21.62593992	     21.62593992	      8.94004773	     -1.41268285	     -3.69470127	     -0.14073296	     -6.70113738	    -13.02805348	     25.17397523	     25.17397523	     18.35479335	    -10.34297334	     -1.70164711	     -8.93193606	      8.77354247	      0.01446673	    -10.04538589	    -14.95852472	    -18.02643185	     37.68940007	     42.17325458	      0.00000000	      0.00000000	     29.81365408	    -20.74159204	    -10.79495527	     69.54220680	     43.99893359	      0.00000000	      0.00000000
     11.16171429	     -3.96760009	     -3.84375925	     -8.54484710	      0.92419299	      0.92691309	      0.52126512	     17.92586306	      3.79780417	     -6.61418938	     21.23036155	     21.23036155	      9.34411845	     -1.43425441	     -3.71954242	      1.07921700	     -7.58167465	    -12.20284160	     28.32286871	     28.32286871	     17.29551563	    -11.03809048	     -2.73913916	     -9.01164892	      8.69279185	      0.12783189	     -9.43659697	    -15.24293303	    -17.80658152	     37.96398498	     42.19374917	      0.00000000	      0.00000000	     28.72078918	    -19.91487100	    -10.50185230	     69.13447294	     44.00241260	      0.00000000	      0.00000000
     11.18257143	     -3.87122835	     -3.91846187	     -7.81668594	      0.92444880	      0.92744269	      0.52575726	     17.13962890	      4.01175254	     -7.19944994	     20.91842522	     20.91842522	      9.72353529	     -1.45157918	     -3.76219047	      2.58305838	     -8.47650846	    -11.32480284	     31.88931380	     31.88931380	     16.01501856	    -11.88842630	     -3.84399954	     -9.05642232	      8.61834905	      0.23876645	     -8.66537146	    -15.53172660	    -17.55671231	     38.24794387	     42.20921623	      0.00000000	      0.00000000	     27.43102961	    -19.03841688	    -10.15653461	     68.55478866	     43.99432572	      0.00000000	      0.00000000
     11.20342857	     -3.80346937	     -4.01803295	     -7.06841826	      0.92444228	      0.92772227	      0.53011574	     16.45349502	      4.25221386	     -7.82230058	     20.69436276	     20.69436276	     10.10679858	     -1.49850985	     -3.81990366	      4.34579063	     -9.37958794	    -10.35275152	     35.70909728	     35.70909728	     14.51692455	    -12.94589376	     -4.85589281	     -9.09048623	      8.56472861	      0.31737359	     -7.74905925	    -15.85383835	    -17.26538161	     38.50108280	     42.22468044	      0.00000000	      0.00000000	     25.95814834	    -18.13829384	     -9.75076172	     67.76151564	     43.97760083	      0.00000000	      0.00000000
     11.22428571	     -3.70305437	     -4.12895155	     -6.33157848	      0.92424292	      0.92778503	      0.53423661	     15.81039798	      4.49426231	     -8.44372444	     20.59133624	     20.59133624	     10.55676288	     -1.56188980	     -3.90655346	      6.24175683	    -10.21046528	     -9.31299344	     39.64436466	     39.64436466	     12.92224807	    -14.24834573	     -5.54543647	     -9.14616728	      8.54905695	      0.38177670	     -6.62728589	    -16.18233220	    -16.93211224	     38.70606687	     42.24158990	      0.00000000	      0.00000000	     24.34325572	    -17.22915139	     -9.27357678	     66.72066238	     43.95184935	      0.00000000	      0.00000000
     11.24514286	     -3.65900143	     -4.15177056	     -5.58967354	      0.92388714	      0.92749084	      0.53808122	     15.38177388	      4.61384791	     -9.08034397	     20.73694824	     20.73694824	     11.15338284	     -1.61874895	     -3.97419627	      8.29661291	    -10.81859815	     -8.19122427	     43.49334414	     43.49334414	     11.27586861	    -15.95006584	     -5.72582265	     -9.07222679	      8.42773360	      0.17523292	     -5.02787797	    -16.54036773	    -16.05559353	     38.48837995	     42.29972385	      0.00000000	      0.00000000	     22.60314313	    -16.54153324	     -8.61874349	     64.81643961	     43.94998257	      0.00000000	      0.00000000
     11.26600000	     -3.45645185	     -4.31626903	     -4.89952834	      0.92330647	      0.92727828	      0.54182182	     14.84400821	      4.84987900	     -9.76940151	     20.99164945	     20.99164945	     11.80125377	     -1.43594195	     -3.56476282	     10.34853810	    -11.55109747	     -7.21335731	     47.50100833	     47.50100833	     10.96439195	    -16.88708580	     -2.77755562	     -9.21643829	      8.42171981	      0.17300937	     -2.88307522	    -17.10527805	    -14.01014694	     36.92532888	     42.53123487	      0.00000000	      0.00000000	     21.08762731	    -15.64493952	     -7.65139814	     62.32080563	     44.09065471	      0.00000000	      0.00000000
     11.28685714	     -3.21613310	     -4.45717131	     -4.23060680	      0.92266092	      0.92677361	      0.54530978	     14.39325750	      5.04742479	    -10.40534519	     21.46305558	     21.46305558	     12.48559328	     -1.47283601	     -3.43264019	     12.36489273	    -12.22456307	     -6.42032839	     51.20507822	     51.20507822	     11.02572040	    -17.73829981	      0.74178887	     -9.40663280	      8.42930809	     -0.02222613	     -0.77543084	    -17.29271844	    -13.44244838	     36.68118204	     42.68575119	      0.00000000	      0.00000000	     19.16080475	    -14.91014303	     -6.89662961	     60.02866216	     44.15039615	      0.00000000	      0.00000000
     11.30771429	     -3.00952089	     -4.64586097	     -3.59400410	      0.92187037	      0.92599628	      0.54868343	     14.01973385	      5.30597278	    -10.98343980	     21.99025001	     21.99025001	     13.30682263	     -1.44528525	     -3.12936607	     14.48331918	    -12.92026309	     -5.69103330	     54.66524504	     54.66524504	     12.06051406	    -18.27945645	      6.11521391	     -9.56742784	      8.45194680	      0.00185459	      1.57291082	    -17.45191734	    -12.94398122	     35.74158569	     42.89143250	      0.00000000	      0.00000000	     17.43272168	    -14.02188448	     -5.82696218	     56.97300044	     44.19742614	      0.00000000	      0.00000000
     11.32857143	     -2.75030750	     -4.90248850	     -2.99794378	      0.92102339	      0.92504838	      0.55187886	     13.64099401	      5.62832762	    -11.54625944	     22.60625449	     22.60625449	     14.18985631	     -1.45165956	     -2.65797912	     16.50127755	    -13.73165524	     -5.19111057	     57.62507884	     57.62507884	     13.51882013	    -18.68910206	     11.77683954	     -9.80527538	      8.56109629	      0.26076663	      3.92364472	    -17.59052591	    -12.73085499	     34.66106918	     43.15600598	      0.00000000	      0.00000000	     15.76108550	    -13.01905166	     -4.65471056	     53.94820993	     44.27570559	      0.00000000	      0.00000000
     11.34942857	     -2.43313646	     -5.16894538	     -2.45200407	      0.92014750	      0.92391105	      0.55500329	     13.27545982	      5.98656056	    -11.95341528	     23.33572988	     23.33572988	     15.05509786	     -1.64350594	     -2.29706355	     18.31542728	    -14.62459759	     -4.93588521	     59.86702338	     59.86702338	     14.74538398	    -19.04998463	     15.79989259	    -10.08533858	      8.65153286	      0.40220997	      6.52436988	    -17.53566426	    -12.71397641	     33.85939769	     43.39543004	      0.00000000	      0.00000000	     13.97939797	    -12.16358093	     -3.40696129	     50.50124809	     44.31800921	      0.00000000	      0.00000000
     11.37028571	     -2.11595376	     -5.44397215	     -1.95275144	      0.91920515	      0.92255332	      0.55798404	     12.95062838	      6.37784598	    -12.24209382	     24.10891563	     24.10891563	     15.89079060	     -2.00079797	     -1.97754521	     20.03324232	    -15.54520819	     -4.81450496	     61.44800469	     61.44800469	     15.92368967	    -19.29032648	     18.83930495	    -10.38063034	      8.76093299	      0.55676871	      9.21129380	    -17.44585568	    -12.80848278	     33.20337474	     43.60934328	      0.00000000	      0.00000000	     12.16964177	    -11.37081162	     -2.10605595	     46.95853323	     44.32487579	      0.00000000	      0.00000000
     11.39114286	     -1.78599711	     -5.67667469	     -1.44643041	      0.91822343	      0.92104178	      0.56072336	     12.64674968	      6.75077801	    -12.40467378	     24.90104014	     24.90104014	     16.60828051	     -2.65063421	     -1.96556762	     21.60404903	    -16.38426490	     -4.77860526	     62.27815186	     62.27815186	     16.68101047	    -19.44034959	     19.99854950	    -10.69869240	      8.79556804	      0.45098621	     11.83002397	    -17.12308491	    -12.86863871	     33.58130701	     43.67808753	      0.00000000	      0.00000000	      9.90718231	    -10.71707269	     -1.16363940	     44.09565226	     44.25744086	      0.00000000	      0.00000000
     11.41200000	     -1.50035211	     -5.89444705	     -0.92541301	      0.91710604	      0.91938478	      0.56317444	     12.43417152	      7.12407187	    -12.49343417	     25.72280876	     25.72280876	     17.26897362	     -3.48981266	     -1.90804935	     23.18545752	    -17.04137705	     -4.60123761	     62.50795278	     62.50795278	     17.52515238	    -19.51922563	     21.12797999	    -10.98746364	      8.82733974	      0.45680904	     14.51218211	    -16.79442856	    -12.87789558	     33.82322376	     43.73544533	      0.00000000	      0.00000000	      7.78748809	    -10.05714996	     -0.16003071	     41.05582394	     44.16552341	      0.00000000	      0.00000000
     11.43285714	     -1.18554420	     -6.01650189	     -0.46148562	      0.91595076	      0.91786861	      0.56532577	     12.16068298	      7.42608784	    -12.41977162	     26.48595283	     26.48595283	     18.06968909	     -4.35041653	     -1.28508952	     24.61226385	    -17.40944600	     -4.39109311	     62.11972669	     62.11972669	     18.60352682	    -19.56290679	     22.99573720	    -11.24665840	      8.73621175	      1.03009754	     17.52274691	    -16.69240662	    -13.02323778	     32.34556705	     43.97436875	      0.00000000	      0.00000000	      6.60227721	     -9.29040905	      1.91326918	     36.33582860	     44.05545405	      0.00000000	      0.00000000
